<?xml version="1.0" encoding="UTF-8" standalone="no"?>
<!-- Created with Inkscape (http://www.inkscape.org/) -->

<svg
   xmlns:dc="http://purl.org/dc/elements/1.1/"
   xmlns:cc="http://creativecommons.org/ns#"
   xmlns:rdf="http://www.w3.org/1999/02/22-rdf-syntax-ns#"
   xmlns:svg="http://www.w3.org/2000/svg"
   xmlns="http://www.w3.org/2000/svg"
   xmlns:sodipodi="http://sodipodi.sourceforge.net/DTD/sodipodi-0.dtd"
   xmlns:inkscape="http://www.inkscape.org/namespaces/inkscape"
   width="24"
   height="24"
   id="svg2"
   version="1.1"
   inkscape:version="0.48.2 r9819"
   sodipodi:docname="crown.svg"
   inkscape:export-filename="C:\Users\imizus\adt-workspace\SalesAndPrices\res-src\crown.png"
   inkscape:export-xdpi="90"
   inkscape:export-ydpi="90">
  <defs
     id="defs4" />
  <sodipodi:namedview
     id="base"
     pagecolor="#ffffff"
     bordercolor="#666666"
     borderopacity="1.0"
     inkscape:pageopacity="0.0"
     inkscape:pageshadow="2"
     inkscape:zoom="1"
     inkscape:cx="-32.56688"
     inkscape:cy="21.816036"
     inkscape:document-units="px"
     inkscape:current-layer="layer1"
     showgrid="false"
     inkscape:window-width="814"
     inkscape:window-height="743"
     inkscape:window-x="397"
     inkscape:window-y="150"
     inkscape:window-maximized="0" />
  <metadata
     id="metadata7">
    <rdf:RDF>
      <cc:Work
         rdf:about="">
        <dc:format>image/svg+xml</dc:format>
        <dc:type
           rdf:resource="http://purl.org/dc/dcmitype/StillImage" />
        <dc:title></dc:title>
      </cc:Work>
    </rdf:RDF>
  </metadata>
  <g
     inkscape:label="Layer 1"
     inkscape:groupmode="layer"
     id="layer1"
     transform="translate(0,-1028.3622)">
    <path
       style="fill:none;stroke:#cccccc;stroke-width:1.25000000000000000;stroke-linecap:butt;stroke-linejoin:miter;stroke-miterlimit:4;stroke-opacity:1;stroke-dasharray:none"
       d="m 12.281525,1046.1788 -7.116162,0"
       id="path3043-5"
       inkscape:connector-curvature="0"
       sodipodi:nodetypes="cc" />
    <path
       style="fill:none;stroke:#cccccc;stroke-width:1.25000000000000000;stroke-linecap:butt;stroke-linejoin:miter;stroke-miterlimit:4;stroke-opacity:1;stroke-dasharray:none"
       d="m 11.418092,1048.6034 7.274377,0 4.070188,-14.012 c -1.042872,1.6347 -3.003591,3.4629 -3.947553,3.3564 0.09906,0.8573 0.111616,1.5768 0.947103,2.1514 -0.51383,0.9004 -0.633716,1.7737 -2.163996,2.1082 -0.3167,-0.7584 -0.54653,-2.327 -1.86497,-2.8112 0.155437,1.879 -0.807785,2.3607 -1.522281,2.8569 -1.0215,-1.3014 -1.410262,-2.8326 -1.406639,-4.749 0.664846,0.042 1.410462,-0.076 2.130124,-0.7447 -1.449643,-0.949 -2.441097,-2.5236 -2.669119,-4.1016"
       id="path2985-4"
       inkscape:connector-curvature="0"
       sodipodi:nodetypes="ccccccccccc" />
    <path
       style="fill:none;stroke:#cccccc;stroke-width:1.25000000000000000;stroke-linecap:butt;stroke-linejoin:miter;stroke-miterlimit:4;stroke-opacity:1;stroke-dasharray:none"
       d="m 12.274224,1046.1788 7.116162,0"
       id="path3043"
       inkscape:connector-curvature="0"
       sodipodi:nodetypes="cc" />
    <path
       style="fill:none;stroke:#cccccc;stroke-width:1.25000000000000000;stroke-linecap:butt;stroke-linejoin:miter;stroke-miterlimit:4;stroke-opacity:1;stroke-dasharray:none"
       d="m 13.137657,1048.6034 -7.274377,0 -4.070188,-14.012 c 1.042872,1.6347 3.003591,3.4629 3.947553,3.3564 -0.09906,0.8573 -0.111616,1.5768 -0.947103,2.1514 0.51383,0.9004 0.633716,1.7737 2.163996,2.1082 0.3167,-0.7584 0.54653,-2.327 1.86497,-2.8112 -0.155437,1.879 0.807785,2.3607 1.522281,2.8569 1.0215,-1.3014 1.410262,-2.8326 1.406639,-4.749 -0.664846,0.042 -1.410462,-0.076 -2.130124,-0.7447 1.449643,-0.949 2.441097,-2.5236 2.669119,-4.1016"
       id="path2985-4-4"
       inkscape:connector-curvature="0"
       sodipodi:nodetypes="ccccccccccc" />
  </g>
</svg>
