<?xml version="1.0" encoding="UTF-8" standalone="no"?>
<!-- Created with Inkscape (http://www.inkscape.org/) -->

<svg
   xmlns:dc="http://purl.org/dc/elements/1.1/"
   xmlns:cc="http://creativecommons.org/ns#"
   xmlns:rdf="http://www.w3.org/1999/02/22-rdf-syntax-ns#"
   xmlns:svg="http://www.w3.org/2000/svg"
   xmlns="http://www.w3.org/2000/svg"
   xmlns:sodipodi="http://sodipodi.sourceforge.net/DTD/sodipodi-0.dtd"
   xmlns:inkscape="http://www.inkscape.org/namespaces/inkscape"
   width="24"
   height="24"
   id="svg2"
   version="1.1"
   inkscape:version="0.48.2 r9819"
   sodipodi:docname="crown.svg"
   inkscape:export-filename="C:\Users\imizus\adt-workspace\SalesAndPrices\res-src\crown.png"
   inkscape:export-xdpi="90"
   inkscape:export-ydpi="90">
  <defs
     id="defs4" />
  <sodipodi:namedview
     id="base"
     pagecolor="#ffffff"
     bordercolor="#666666"
     borderopacity="1.0"
     inkscape:pageopacity="0.0"
     inkscape:pageshadow="2"
     inkscape:zoom="1"
     inkscape:cx="-254.567"
     inkscape:cy="186.82711"
     inkscape:document-units="px"
     inkscape:current-layer="layer1"
     showgrid="false"
     inkscape:window-width="814"
     inkscape:window-height="743"
     inkscape:window-x="176"
     inkscape:window-y="175"
     inkscape:window-maximized="0" />
  <metadata
     id="metadata7">
    <rdf:RDF>
      <cc:Work
         rdf:about="">
        <dc:format>image/svg+xml</dc:format>
        <dc:type
           rdf:resource="http://purl.org/dc/dcmitype/StillImage" />
        <dc:title></dc:title>
      </cc:Work>
    </rdf:RDF>
  </metadata>
  <g
     inkscape:label="Layer 1"
     inkscape:groupmode="layer"
     id="layer1"
     transform="translate(0,-1028.3622)">
    <path
       style="fill:#000000;stroke:#000000;stroke-width:0.0391021px;stroke-linecap:butt;stroke-linejoin:miter;stroke-opacity:1"
       d="m 12.293092,1044.7284 7.274377,0 3.195188,-10.137 c -1.042872,1.6347 -3.003591,3.4629 -3.947553,3.3564 0.09906,0.8573 0.111616,1.5768 0.947103,2.1514 -0.51383,0.9004 -0.633716,1.7737 -2.163996,2.1082 -0.3167,-0.7584 -0.54653,-2.327 -1.86497,-2.8112 0.155437,1.879 -0.807785,2.3607 -1.522281,2.8569 -1.0215,-1.3014 -1.410262,-2.8326 -1.406639,-4.749 0.664846,0.042 1.410462,-0.076 2.130124,-0.7447 -1.449643,-0.949 -2.441097,-2.5236 -2.669119,-4.1016"
       id="path2985"
       inkscape:connector-curvature="0"
       sodipodi:nodetypes="ccccccccccc" />
    <path
       style="fill:#000000;stroke:#000000;stroke-width:0.0391021px;stroke-linecap:butt;stroke-linejoin:miter;stroke-opacity:1"
       d="m 12.293092,1044.7284 7.274377,0 3.195188,-10.137 c -1.042872,1.6347 -3.003591,3.4629 -3.947553,3.3564 0.09906,0.8573 0.111616,1.5768 0.947103,2.1514 -0.51383,0.9004 -0.633716,1.7737 -2.163996,2.1082 -0.3167,-0.7584 -0.54653,-2.327 -1.86497,-2.8112 0.155437,1.879 -0.807785,2.3607 -1.522281,2.8569 -1.0215,-1.3014 -1.410262,-2.8326 -1.406639,-4.749 0.664846,0.042 1.410462,-0.076 2.130124,-0.7447 -1.449643,-0.949 -2.441097,-2.5236 -2.669119,-4.1016"
       id="path2985-4"
       inkscape:connector-curvature="0"
       sodipodi:nodetypes="ccccccccccc" />
    <path
       style="fill:#000000;stroke:#000000;stroke-width:0.0391021px;stroke-linecap:butt;stroke-linejoin:miter;stroke-opacity:1"
       d="m 12.274224,1046.1788 7.116162,0 -0.583662,2.4385 -6.533255,0"
       id="path3043"
       inkscape:connector-curvature="0"
       sodipodi:nodetypes="cccc" />
    <path
       style="fill:#000000;stroke:#000000;stroke-width:0.0391021px;stroke-linecap:butt;stroke-linejoin:miter;stroke-opacity:1"
       d="m 12.297278,1044.7284 -7.2743749,0 -3.1951911,-10.137 c 1.0428727,1.6347 3.0035931,3.4629 3.9475553,3.3564 -0.099068,0.8573 -0.1116344,1.5768 -0.9471055,2.1514 0.51383,0.9004 0.6337164,1.7737 2.163996,2.1082 0.3167029,-0.7584 0.5465327,-2.327 1.8649694,-2.8112 -0.1554333,1.879 0.807788,2.3607 1.5222838,2.8569 1.021502,-1.3014 1.410262,-2.8326 1.40664,-4.749 -0.664845,0.042 -1.410462,-0.076 -2.1301259,-0.7447 1.4496429,-0.949 2.4411009,-2.5236 2.6691189,-4.1016"
       id="path2985-8"
       inkscape:connector-curvature="0"
       sodipodi:nodetypes="ccccccccccc" />
    <path
       style="fill:#000000;stroke:#000000;stroke-width:0.0391021px;stroke-linecap:butt;stroke-linejoin:miter;stroke-opacity:1"
       d="m 12.297278,1044.7284 -7.2743749,0 -3.1951911,-10.137 c 1.0428727,1.6347 3.0035931,3.4629 3.9475553,3.3564 -0.099068,0.8573 -0.1116344,1.5768 -0.9471055,2.1514 0.51383,0.9004 0.6337164,1.7737 2.163996,2.1082 0.3167029,-0.7584 0.5465327,-2.327 1.8649694,-2.8112 -0.1554333,1.879 0.807788,2.3607 1.5222838,2.8569 1.021502,-1.3014 1.410262,-2.8326 1.40664,-4.749 -0.664845,0.042 -1.410462,-0.076 -2.1301259,-0.7447 1.4496429,-0.949 2.4411009,-2.5236 2.6691189,-4.1016"
       id="path2985-4-8"
       inkscape:connector-curvature="0"
       sodipodi:nodetypes="ccccccccccc" />
    <path
       style="fill:#000000;stroke:#000000;stroke-width:0.0391021px;stroke-linecap:butt;stroke-linejoin:miter;stroke-opacity:1"
       d="m 12.316149,1046.1788 -7.1161649,0 0.5836619,2.4385 6.533259,0"
       id="path3043-2"
       inkscape:connector-curvature="0"
       sodipodi:nodetypes="cccc" />
  </g>
</svg>
